<svg width="26" height="26" viewBox="0 0 26 26" fill="none" xmlns="http://www.w3.org/2000/svg">
<path d="M13.3999 25.8999C6.4999 25.8999 0.899902 20.2999 0.899902 13.3999C0.899902 6.4999 6.4999 0.899902 13.3999 0.899902C20.2999 0.899902 25.8999 6.4999 25.8999 13.3999C25.8999 20.2999 20.2999 25.8999 13.3999 25.8999Z" fill="#93B5C5"/>
<path d="M18.8999 12.4997C18.8999 13.4997 18.4999 14.5997 17.9999 15.4997C17.1999 16.8997 15.9999 18.0997 14.6999 19.0997C14.3999 19.3997 13.9999 19.5998 13.6999 19.8998C13.4999 20.0998 13.1999 20.0998 12.9999 19.8998C11.3999 18.7998 9.89985 17.4998 8.89985 15.7998C8.39985 14.9998 7.99985 14.0997 7.89985 13.1997C7.69985 11.6997 8.09986 10.2997 9.09986 9.09971C11.6999 5.89971 16.7999 6.59978 18.4999 10.2998C18.6999 10.8998 18.8999 11.6997 18.8999 12.4997ZM13.2998 8.19968C12.2998 8.19968 11.2999 8.49968 10.4999 9.19968C9.29986 10.1997 8.69985 11.4997 8.89985 13.0997C8.99985 13.9997 9.39985 14.7997 9.89985 15.4997C10.7999 16.7997 11.8999 17.7997 13.0999 18.6997C13.1999 18.7997 13.1998 18.7997 13.2998 18.6997C13.6998 18.3997 14.0999 17.9997 14.4999 17.6997C15.4999 16.7997 16.2999 15.8997 16.9999 14.6997C17.4999 13.7997 17.6999 12.7997 17.4999 11.6997C17.1999 9.59968 15.4998 8.19968 13.2998 8.19968Z" fill="white"/>
<path d="M15.7998 12.5996C15.7998 13.9996 14.6998 15.0996 13.2998 15.0996C11.8998 15.0996 10.7998 13.9996 10.7998 12.5996C10.7998 11.1996 11.8998 10.0996 13.2998 10.0996C14.6998 10.0996 15.7998 11.1996 15.7998 12.5996ZM11.9998 12.5996C11.9998 13.2996 12.5998 13.8997 13.2998 13.8997C13.9998 13.8997 14.5998 13.2996 14.5998 12.5996C14.5998 11.8996 13.9998 11.2997 13.2998 11.2997C12.5998 11.1997 11.9998 11.7996 11.9998 12.5996Z" fill="white"/>
</svg>
