<svg width="43" height="34" viewBox="0 0 43 34" fill="none" xmlns="http://www.w3.org/2000/svg">
<path d="M9 1.80005H35C37.8 1.80005 40 4.00005 40 6.80005V27.8C40 30.6 37.8 32.8 35 32.8H9C6.2 32.8 4 30.6 4 27.8V6.80005C4 4.00005 6.2 1.80005 9 1.80005Z" fill="white"/>
<path d="M35 33.8H9C5.7 33.8 3 31.1 3 27.8V6.80005C3 3.50005 5.7 0.800049 9 0.800049H35C38.3 0.800049 41 3.50005 41 6.80005V27.8C41 31.1 38.3 33.8 35 33.8ZM9 2.80005C6.8 2.80005 5 4.60005 5 6.80005V27.8C5 30 6.8 31.8 9 31.8H35C37.2 31.8 39 30 39 27.8V6.80005C39 4.60005 37.2 2.80005 35 2.80005H9Z" fill="#337390"/>
<path d="M6 1.80005H30C32.8 1.80005 35 4.00005 35 6.80005V27.8C35 30.6 32.8 32.8 30 32.8H6C3.2 32.8 1 30.6 1 27.8V6.80005C1 4.00005 3.2 1.80005 6 1.80005Z" fill="white"/>
<path d="M30 33.8H6C2.7 33.8 0 31.1 0 27.8V6.80005C0 3.50005 2.7 0.800049 6 0.800049H30C33.3 0.800049 36 3.50005 36 6.80005V27.8C36 31.1 33.3 33.8 30 33.8ZM6 2.80005C3.8 2.80005 2 4.60005 2 6.80005V27.8C2 30 3.8 31.8 6 31.8H30C32.2 31.8 34 30 34 27.8V6.80005C34 4.60005 32.2 2.80005 30 2.80005H6Z" fill="#337390"/>
<path d="M27.5993 13.6001H41.2993C41.6993 13.6001 42.0993 14.0001 42.0993 14.4001V20.7001C42.0993 21.1001 41.6993 21.5001 41.2993 21.5001H27.5993C25.3993 21.5001 23.6993 19.7001 23.6993 17.6001C23.5993 15.4001 25.3993 13.6001 27.5993 13.6001Z" fill="white"/>
<path d="M41.1992 22.5001H27.5992C24.8992 22.5001 22.6992 20.3001 22.6992 17.6001C22.6992 14.9001 24.8992 12.7001 27.5992 12.7001H41.1992C42.1992 12.7001 42.9992 13.5001 42.9992 14.5001V20.8001C42.9992 21.7001 42.1992 22.5001 41.1992 22.5001ZM27.5992 14.6001C25.9992 14.6001 24.6992 15.9001 24.6992 17.5001C24.6992 19.1001 25.9992 20.4001 27.5992 20.4001H40.9992V14.5001H27.5992V14.6001Z" fill="#337390"/>
<path d="M6.30076 24.7C6.00076 24.7 5.80078 24.6 5.60078 24.4C5.20078 24 5.20078 23.4 5.60078 23L7.80076 20.8C8.20076 20.4 8.80079 20.4 9.20079 20.8C9.60079 21.2 9.60079 21.8 9.20079 22.2L7.00078 24.4C6.80078 24.6 6.50076 24.7 6.30076 24.7Z" fill="#337390"/>
<path d="M17 14.6C16.7 14.6 16.5 14.5 16.3 14.3C15.9 13.9 15.9 13.3 16.3 12.9L18.5 10.7C18.9 10.3 19.5 10.3 19.9 10.7C20.3 11.1 20.3 11.7 19.9 12.1L17.7 14.3C17.5 14.5 17.2 14.6 17 14.6Z" fill="#337390"/>
<path d="M12.6992 27.2C11.3992 27.2 10.0992 26.9 8.89922 26.4C8.59922 26.3 8.39922 26 8.29922 25.7C8.19922 25.4 8.29923 25 8.59923 24.8L11.5992 21.8C11.9992 21.4 12.5992 21.4 12.9992 21.8C13.3992 22.2 13.3992 22.8 12.9992 23.2L11.1992 25C11.6992 25.1 12.2992 25.2 12.7992 25.2C15.7992 25.2 18.2992 23.7 18.2992 21.9C18.2992 20.9 17.4992 19.9 16.0992 19.3C15.5992 19.1 15.3992 18.5 15.5992 18C15.7992 17.5 16.3992 17.3 16.8992 17.5C18.9992 18.5 20.2992 20.1 20.2992 22C20.1992 24.9 16.8992 27.2 12.6992 27.2Z" fill="#337390"/>
<path d="M8.99921 17.8C8.89921 17.8 8.69921 17.8 8.59921 17.7C6.49921 16.7 5.19922 15.1 5.19922 13.2C5.19922 10.2 8.59922 7.90002 12.6992 7.90002C13.9992 7.90002 15.2992 8.20003 16.4992 8.70003C16.7992 8.80003 16.9992 9.10002 17.0992 9.40002C17.1992 9.70002 17.0992 10.1 16.7992 10.3L13.7992 13.3C13.3992 13.7 12.7992 13.7 12.3992 13.3C11.9992 12.9 11.9992 12.3 12.3992 11.9L14.1992 10.1C13.6992 10 13.0992 9.90002 12.5992 9.90002C9.59921 9.90002 7.09921 11.4 7.09921 13.2C7.09921 14.2 7.89919 15.2 9.29919 15.8C9.79919 16 9.99919 16.6 9.79919 17.1C9.79919 17.6 9.39921 17.8 8.99921 17.8Z" fill="#337390"/>
<path d="M27.6008 18.8001C28.3188 18.8001 28.9008 18.218 28.9008 17.5001C28.9008 16.7821 28.3188 16.2001 27.6008 16.2001C26.8828 16.2001 26.3008 16.7821 26.3008 17.5001C26.3008 18.218 26.8828 18.8001 27.6008 18.8001Z" fill="#337390"/>
</svg>
