<svg width="47" height="35" viewBox="0 0 47 35" fill="none" xmlns="http://www.w3.org/2000/svg">
<path d="M5 2.69995H19C20.7 2.69995 22 3.99995 22 5.69995V25.7C22 27.4 20.7 28.7 19 28.7H5C3.3 28.7 2 27.4 2 25.7V5.69995C2 4.09995 3.3 2.69995 5 2.69995Z" fill="white"/>
<path d="M19 30.7H5C2.2 30.7 0 28.5 0 25.7V5.69995C0 2.89995 2.2 0.699951 5 0.699951H19C21.8 0.699951 24 2.89995 24 5.69995V25.7C24 28.5 21.8 30.7 19 30.7ZM5 2.69995C3.3 2.69995 2 3.99995 2 5.69995V25.7C2 27.4 3.3 28.7 5 28.7H19C20.7 28.7 22 27.4 22 25.7V5.69995C22 3.99995 20.7 2.69995 19 2.69995H5Z" fill="#337390"/>
<path d="M5 6.69995H42C43.7 6.69995 45 7.99995 45 9.69995V29.7C45 31.4 43.7 32.7 42 32.7H5C3.3 32.7 2 31.4 2 29.7V9.69995C2 8.09995 3.3 6.69995 5 6.69995Z" fill="white"/>
<path d="M42 34.7H5C2.2 34.7 0 32.5 0 29.7V9.69995C0 6.89995 2.2 4.69995 5 4.69995H42C44.8 4.69995 47 6.89995 47 9.69995V29.7C47 32.5 44.8 34.7 42 34.7ZM5 6.69995C3.3 6.69995 2 7.99995 2 9.69995V29.7C2 31.4 3.3 32.7 5 32.7H42C43.7 32.7 45 31.4 45 29.7V9.69995C45 7.99995 43.7 6.69995 42 6.69995H5Z" fill="#337390"/>
<path d="M14 12.7H18C18.6 12.7 19 13.1 19 13.7V25.7C19 26.3 18.6 26.7 18 26.7H14C13.4 26.7 13 26.3 13 25.7V13.7C13 13.2 13.4 12.7 14 12.7Z" fill="#337390"/>
<path d="M33 12.7H37C37.6 12.7 38 13.1 38 13.7V25.7C38 26.3 37.6 26.7 37 26.7H33C32.4 26.7 32 26.3 32 25.7V13.7C32 13.2 32.4 12.7 33 12.7Z" fill="#337390"/>
<path d="M28 26.7C27.4 26.7 27 26.3 27 25.7V13.7C27 13.1 27.4 12.7 28 12.7C28.6 12.7 29 13.1 29 13.7V25.7C29 26.3 28.6 26.7 28 26.7Z" fill="#337390"/>
<path d="M9 26.7C8.4 26.7 8 26.3 8 25.7V13.7C8 13.1 8.4 12.7 9 12.7C9.6 12.7 10 13.1 10 13.7V25.7C10 26.3 9.6 26.7 9 26.7Z" fill="#337390"/>
<path d="M23 26.7C22.4 26.7 22 26.3 22 25.7V13.7C22 13.1 22.4 12.7 23 12.7C23.6 12.7 24 13.1 24 13.7V25.7C24 26.3 23.6 26.7 23 26.7Z" fill="#337390"/>
</svg>
