<svg width="26" height="25" viewBox="0 0 26 25" fill="none" xmlns="http://www.w3.org/2000/svg">
<path d="M13.2 25C6.30001 25 0.700012 19.4 0.700012 12.5C0.700012 5.6 6.30001 0 13.2 0C20.1 0 25.7 5.6 25.7 12.5C25.7 19.4 20.1 25 13.2 25Z" fill="#16B6C0"/>
<path d="M18.7 11.6001C18.7 12.6001 18.3 13.7001 17.8 14.6001C17 16.0001 15.8 17.2001 14.5 18.2001C14.2 18.5001 13.8 18.7001 13.5 19.0001C13.3 19.2001 13 19.2001 12.8 19.0001C11.2 17.9001 9.70002 16.6001 8.70002 14.9001C8.20002 14.1001 7.80002 13.2001 7.70002 12.3001C7.50002 10.8001 7.90004 9.40008 8.90004 8.20008C11.5 5.00008 16.6 5.70007 18.3 9.40007C18.6 10.1001 18.7 10.8001 18.7 11.6001ZM13.2 7.30006C12.2 7.30006 11.2 7.60006 10.4 8.30006C9.20004 9.30006 8.6 10.6001 8.8 12.2001C8.9 13.1001 9.3 13.9001 9.8 14.6001C10.7 15.9001 11.8 16.9001 13 17.8001C13.1 17.9001 13.1 17.9001 13.2 17.8001C13.6 17.5001 14 17.1001 14.4 16.8001C15.4 15.9001 16.2 15.0001 16.9 13.8001C17.4 12.9001 17.6 11.9001 17.4 10.8001C17.1 8.70006 15.3 7.30006 13.2 7.30006Z" fill="white"/>
<path d="M15.7 11.7001C15.7 13.1001 14.6 14.2001 13.2 14.2001C11.8 14.2001 10.7 13.1001 10.7 11.7001C10.7 10.3001 11.8 9.20007 13.2 9.20007C14.6 9.20007 15.7 10.3001 15.7 11.7001ZM11.9 11.7001C11.9 12.4001 12.5 13.0001 13.2 13.0001C13.9 13.0001 14.5 12.4001 14.5 11.7001C14.5 11.0001 13.9 10.4001 13.2 10.4001C12.5 10.3001 11.9 10.9001 11.9 11.7001Z" fill="white"/>
</svg>
