<svg width="18" height="14" viewBox="0 0 18 14" fill="none" xmlns="http://www.w3.org/2000/svg">
<path d="M3.59882 1H2.19885C1.39885 1 0.798828 1.69999 0.798828 2.39999V12C0.798828 12.8 1.39885 13.4 2.19885 13.4H15.3989C16.1989 13.4 16.7988 12.7 16.7988 12V2.39999C16.7988 1.59999 16.1989 1 15.3989 1H13.9988" fill="#66ACCC"/>
<path d="M2.09918 14C0.999182 14 0.199219 13.1 0.199219 12.1V2.49997C0.199219 1.39997 0.999182 0.599976 2.09918 0.599976H3.49921C3.79921 0.599976 3.99921 0.799976 3.99921 1.09998C3.99921 1.39998 3.79921 1.59998 3.49921 1.59998H2.09918C1.59918 1.59998 1.19922 1.99997 1.19922 2.49997V12.1C1.19922 12.6 1.59918 13 2.09918 13H15.2992C15.7992 13 16.1992 12.6 16.1992 12.1V2.49997C16.1992 1.99997 15.7992 1.59998 15.2992 1.59998H13.8992C13.5992 1.59998 13.3992 1.39998 13.3992 1.09998C13.3992 0.799976 13.5992 0.599976 13.8992 0.599976H15.2992C16.3992 0.599976 17.1992 1.49997 17.1992 2.49997V12.1C17.1992 13.2 16.3992 14 15.2992 14H2.09918Z" fill="#3D3D3D"/>
<path d="M5.19922 2C4.89922 2 4.69922 1.8 4.69922 1.5V0.5C4.69922 0.2 4.89922 0 5.19922 0C5.49922 0 5.69922 0.2 5.69922 0.5V1.5C5.69922 1.8 5.49922 2 5.19922 2Z" fill="#3D3D3D"/>
<path d="M10.1992 1.5H7.19922C6.89922 1.5 6.69922 1.3 6.69922 1C6.69922 0.7 6.89922 0.5 7.19922 0.5H10.1992C10.4992 0.5 10.6992 0.7 10.6992 1C10.6992 1.3 10.4992 1.5 10.1992 1.5Z" fill="#3D3D3D"/>
<path d="M12.1992 2C11.8992 2 11.6992 1.8 11.6992 1.5V0.5C11.6992 0.2 11.8992 0 12.1992 0C12.4992 0 12.6992 0.2 12.6992 0.5V1.5C12.6992 1.8 12.4992 2 12.1992 2Z" fill="#3D3D3D"/>
<path d="M3.5 3C4.1 3 4.5 3.4 4.5 4C4.5 4.6 4.1 5 3.5 5C2.9 5 2.5 4.6 2.5 4C2.5 3.4 2.9 3 3.5 3Z" fill="white"/>
<path d="M3.5 6.5C4.1 6.5 4.5 6.9 4.5 7.5C4.5 8.1 4.1 8.5 3.5 8.5C2.9 8.5 2.5 8.1 2.5 7.5C2.5 6.9 2.9 6.5 3.5 6.5Z" fill="white"/>
<path d="M3.5 10C4.1 10 4.5 10.4 4.5 11C4.5 11.6 4.1 12 3.5 12C2.9 12 2.5 11.6 2.5 11C2.5 10.4 2.9 10 3.5 10Z" fill="white"/>
<path d="M7 3C7.6 3 8 3.4 8 4C8 4.6 7.6 5 7 5C6.4 5 6 4.6 6 4C6 3.4 6.4 3 7 3Z" fill="white"/>
<path d="M7 6.5C7.6 6.5 8 6.9 8 7.5C8 8.1 7.6 8.5 7 8.5C6.4 8.5 6 8.1 6 7.5C6 6.9 6.4 6.5 7 6.5Z" fill="white"/>
<path d="M7 10C7.6 10 8 10.4 8 11C8 11.6 7.6 12 7 12C6.4 12 6 11.6 6 11C6 10.4 6.4 10 7 10Z" fill="white"/>
<path d="M14 3C14.6 3 15 3.4 15 4C15 4.6 14.6 5 14 5C13.4 5 13 4.6 13 4C13 3.4 13.4 3 14 3Z" fill="#707070"/>
<path d="M14 6.5C14.6 6.5 15 6.9 15 7.5C15 8.1 14.6 8.5 14 8.5C13.4 8.5 13 8.1 13 7.5C13 6.9 13.4 6.5 14 6.5Z" fill="#707070"/>
<path d="M10.5 3C11.1 3 11.5 3.4 11.5 4C11.5 4.6 11.1 5 10.5 5C9.9 5 9.5 4.6 9.5 4C9.5 3.4 9.9 3 10.5 3Z" fill="white"/>
<path d="M10.5 6.5C11.1 6.5 11.5 6.9 11.5 7.5C11.5 8.1 11.1 8.5 10.5 8.5C9.9 8.5 9.5 8.1 9.5 7.5C9.5 6.9 9.9 6.5 10.5 6.5Z" fill="white"/>
<path d="M10.5 10C11.1 10 11.5 10.4 11.5 11C11.5 11.6 11.1 12 10.5 12C9.9 12 9.5 11.6 9.5 11C9.5 10.4 9.9 10 10.5 10Z" fill="white"/>
</svg>
