<svg width="18" height="14" viewBox="0 0 18 14" fill="none" xmlns="http://www.w3.org/2000/svg">
<path d="M3.3996 1H1.9996C1.1996 1 0.599609 1.69999 0.599609 2.39999V12C0.599609 12.8 1.1996 13.4 1.9996 13.4H15.1996C15.9996 13.4 16.5996 12.7 16.5996 12V2.39999C16.5996 1.59999 15.9996 1 15.1996 1H13.7996" fill="#F2F2F2"/>
<path d="M1.9996 14C0.899603 14 0.0996094 13.1 0.0996094 12.1V2.49997C0.0996094 1.39997 0.899603 0.599976 1.9996 0.599976H3.3996C3.6996 0.599976 3.8996 0.799976 3.8996 1.09998C3.8996 1.39998 3.6996 1.59998 3.3996 1.59998H1.9996C1.4996 1.59998 1.09961 1.99997 1.09961 2.49997V12.1C1.09961 12.6 1.4996 13 1.9996 13H15.1996C15.6996 13 16.0996 12.6 16.0996 12.1V2.49997C16.0996 1.99997 15.6996 1.59998 15.1996 1.59998H13.7996C13.4996 1.59998 13.2996 1.39998 13.2996 1.09998C13.2996 0.799976 13.4996 0.599976 13.7996 0.599976H15.1996C16.2996 0.599976 17.0996 1.49997 17.0996 2.49997V12.1C17.0996 13.2 16.2996 14 15.1996 14H1.9996Z" fill="#337390"/>
<path d="M5.09961 2C4.79961 2 4.59961 1.8 4.59961 1.5V0.5C4.59961 0.2 4.79961 0 5.09961 0C5.39961 0 5.59961 0.2 5.59961 0.5V1.5C5.59961 1.8 5.39961 2 5.09961 2Z" fill="#337390"/>
<path d="M10.0996 1.5H7.09961C6.79961 1.5 6.59961 1.3 6.59961 1C6.59961 0.7 6.79961 0.5 7.09961 0.5H10.0996C10.3996 0.5 10.5996 0.7 10.5996 1C10.5996 1.3 10.3996 1.5 10.0996 1.5Z" fill="#337390"/>
<path d="M12.0996 2C11.7996 2 11.5996 1.8 11.5996 1.5V0.5C11.5996 0.2 11.7996 0 12.0996 0C12.3996 0 12.5996 0.2 12.5996 0.5V1.5C12.5996 1.8 12.3996 2 12.0996 2Z" fill="#337390"/>
<path d="M3.40039 3C4.00039 3 4.40039 3.4 4.40039 4C4.40039 4.6 4.00039 5 3.40039 5C2.80039 5 2.40039 4.6 2.40039 4C2.40039 3.4 2.80039 3 3.40039 3Z" fill="#337390"/>
<path d="M3.40039 6.5C4.00039 6.5 4.40039 6.9 4.40039 7.5C4.40039 8.1 4.00039 8.5 3.40039 8.5C2.80039 8.5 2.40039 8.1 2.40039 7.5C2.40039 6.9 2.80039 6.5 3.40039 6.5Z" fill="#337390"/>
<path d="M3.40039 10C4.00039 10 4.40039 10.4 4.40039 11C4.40039 11.6 4.00039 12 3.40039 12C2.80039 12 2.40039 11.6 2.40039 11C2.40039 10.4 2.80039 10 3.40039 10Z" fill="#337390"/>
<path d="M6.90039 3C7.50039 3 7.90039 3.4 7.90039 4C7.90039 4.6 7.50039 5 6.90039 5C6.30039 5 5.90039 4.6 5.90039 4C5.90039 3.4 6.30039 3 6.90039 3Z" fill="#337390"/>
<path d="M6.90039 6.5C7.50039 6.5 7.90039 6.9 7.90039 7.5C7.90039 8.1 7.50039 8.5 6.90039 8.5C6.30039 8.5 5.90039 8.1 5.90039 7.5C5.90039 6.9 6.30039 6.5 6.90039 6.5Z" fill="#337390"/>
<path d="M6.90039 10C7.50039 10 7.90039 10.4 7.90039 11C7.90039 11.6 7.50039 12 6.90039 12C6.30039 12 5.90039 11.6 5.90039 11C5.90039 10.4 6.30039 10 6.90039 10Z" fill="#337390"/>
<path d="M13.9004 3C14.5004 3 14.9004 3.4 14.9004 4C14.9004 4.6 14.5004 5 13.9004 5C13.3004 5 12.9004 4.6 12.9004 4C12.9004 3.4 13.3004 3 13.9004 3Z" fill="#707070"/>
<path d="M13.9004 6.5C14.5004 6.5 14.9004 6.9 14.9004 7.5C14.9004 8.1 14.5004 8.5 13.9004 8.5C13.3004 8.5 12.9004 8.1 12.9004 7.5C12.9004 6.9 13.3004 6.5 13.9004 6.5Z" fill="#707070"/>
<path d="M10.4004 3C11.0004 3 11.4004 3.4 11.4004 4C11.4004 4.6 11.0004 5 10.4004 5C9.80039 5 9.40039 4.6 9.40039 4C9.40039 3.4 9.80039 3 10.4004 3Z" fill="#337390"/>
<path d="M10.4004 6.5C11.0004 6.5 11.4004 6.9 11.4004 7.5C11.4004 8.1 11.0004 8.5 10.4004 8.5C9.80039 8.5 9.40039 8.1 9.40039 7.5C9.40039 6.9 9.80039 6.5 10.4004 6.5Z" fill="#337390"/>
<path d="M10.4004 10C11.0004 10 11.4004 10.4 11.4004 11C11.4004 11.6 11.0004 12 10.4004 12C9.80039 12 9.40039 11.6 9.40039 11C9.40039 10.4 9.80039 10 10.4004 10Z" fill="#337390"/>
</svg>
