<svg width="16" height="19" viewBox="0 0 16 19" fill="none" xmlns="http://www.w3.org/2000/svg">
<path d="M15.2289 3.56124C15.1988 3.20676 14.9004 2.93497 14.5257 2.93381C13.4374 2.93092 12.3485 2.92918 11.2602 2.9367C11.1064 2.93786 11.0688 2.89796 11.0734 2.74761C11.085 2.35149 11.078 1.9548 11.0769 1.5581C11.0746 0.776276 10.461 0.164464 9.67631 0.163886C8.30639 0.163308 6.93704 0.163308 5.56711 0.163886C4.76678 0.163886 4.15555 0.77165 4.15381 1.56677C4.15323 1.95595 4.14572 2.34571 4.15728 2.73431C4.16191 2.88986 4.12952 2.93844 3.96183 2.93728C2.88046 2.92803 1.79909 2.93092 0.717717 2.93323C0.309456 2.93497 0.0058632 3.227 8.0477e-05 3.6127C-0.00570225 4.00651 0.300782 4.30779 0.717138 4.31704C0.796362 4.31877 0.876742 4.32456 0.954808 4.31588C1.07567 4.30258 1.11499 4.34769 1.11962 4.4697C1.14564 5.12489 1.17918 5.78007 1.21156 6.43525C1.28847 7.99774 1.36538 9.55966 1.44403 11.1216C1.53829 13.0004 1.64006 14.8792 1.72622 16.758C1.76381 17.5797 2.34382 18.1626 3.16381 18.1632C4.64187 18.1638 6.11936 18.1632 7.59742 18.1632C9.09688 18.1632 10.5963 18.1638 12.0958 18.1626C12.7527 18.162 13.2888 17.7434 13.46 17.1125C13.516 16.906 13.501 16.6979 13.512 16.4903C13.6248 14.331 13.7346 12.1711 13.8428 10.0119C13.9347 8.16891 14.0249 6.32596 14.1111 4.483C14.1169 4.3552 14.1481 4.30142 14.284 4.31357C14.4054 4.32456 14.5309 4.32456 14.6506 4.30547C15.0086 4.24996 15.2595 3.91977 15.2289 3.56124ZM5.53588 1.68937C5.53357 1.57661 5.5648 1.54538 5.67872 1.54538C6.96942 1.54943 8.26013 1.54943 9.55083 1.54538C9.66301 1.5448 9.69771 1.57314 9.6954 1.68821C9.68788 2.04848 9.68614 2.40932 9.69598 2.76958C9.69944 2.90316 9.66475 2.93786 9.53059 2.93612C8.88871 2.92861 8.2474 2.93265 7.60552 2.93265C6.97116 2.93265 6.33621 2.92861 5.70185 2.93612C5.56942 2.93786 5.53126 2.90663 5.5353 2.77074C5.54514 2.41047 5.54282 2.05021 5.53588 1.68937ZM12.729 4.52811C12.6255 6.52951 12.5284 8.53149 12.4075 10.9891C12.3277 12.5487 12.2219 14.5646 12.127 16.581C12.1189 16.7586 12.0588 16.7829 11.9038 16.7823C9.04137 16.7782 6.17892 16.7777 3.31647 16.7829C3.16497 16.7829 3.11466 16.7574 3.10656 16.5903C2.99785 14.2789 2.8793 11.9676 2.76364 9.65681C2.67748 7.94339 2.59421 6.22939 2.50227 4.51654C2.49359 4.3581 2.52193 4.31357 2.69078 4.31357C5.97132 4.31935 9.25244 4.31935 12.533 4.31357C12.7111 4.31299 12.7371 4.36677 12.729 4.52811Z" fill="#93B5C5"/>
<path d="M8.65392 10.5618C8.65392 11.9305 8.65507 13.2999 8.65334 14.6687C8.65276 15.0168 8.46366 15.2706 8.14908 15.3643C7.86573 15.4488 7.56503 15.34 7.39155 15.0891C7.30712 14.9671 7.26953 14.8317 7.26953 14.6825C7.27011 11.923 7.26895 9.16351 7.27127 6.404C7.27184 6.00094 7.57833 5.70024 7.96519 5.70197C8.35032 5.70371 8.6516 6.00672 8.65276 6.41151C8.65565 7.79474 8.65392 9.17855 8.65392 10.5618Z" fill="#93B5C5"/>
<path d="M11.2267 10.8399C11.1954 11.9109 11.1561 13.2872 11.1133 14.6629C11.1012 15.0573 10.8571 15.3418 10.5038 15.3892C10.1846 15.432 9.87119 15.2313 9.76074 14.9196C9.72836 14.8283 9.7272 14.7357 9.72951 14.6426C9.81278 11.8976 9.89779 9.15251 9.98048 6.40745C9.98973 6.09518 10.1268 5.86619 10.4171 5.74995C10.6808 5.64413 10.9277 5.69675 11.1393 5.88758C11.3117 6.04256 11.3718 6.24438 11.3649 6.47164C11.3215 7.82537 11.2793 9.18027 11.2267 10.8399Z" fill="#93B5C5"/>
<path d="M5.72844 10.5658C5.76834 11.9277 5.80708 13.2889 5.84872 14.6508C5.85797 14.9463 5.73827 15.1683 5.48267 15.31C5.24847 15.4395 5.01138 15.4233 4.78701 15.2799C4.56091 15.1354 4.4707 14.9168 4.4626 14.6565C4.41807 13.1796 4.37355 11.7027 4.32844 10.2258C4.29027 8.97964 4.25211 7.73346 4.21279 6.48671C4.20006 6.08539 4.42848 5.77486 4.78412 5.71009C5.11258 5.65053 5.4393 5.84367 5.55611 6.16172C5.59197 6.25945 5.5937 6.35949 5.59717 6.45953C5.64112 7.8283 5.68391 9.19707 5.7267 10.5658C5.72786 10.5658 5.72786 10.5658 5.72844 10.5658Z" fill="#93B5C5"/>
</svg>
