<svg width="80" height="80" viewBox="0 0 80 80" fill="none" xmlns="http://www.w3.org/2000/svg">
<path d="M40 80C62.0914 80 80 62.0914 80 40C80 17.9086 62.0914 0 40 0C17.9086 0 0 17.9086 0 40C0 62.0914 17.9086 80 40 80Z" fill="#F4F7FB"/>
<path d="M50.6998 61.2C42.9998 61.2 35.2998 61.2 27.5998 61.2C27.4998 61.2 27.4998 61.1001 27.3998 61.1001C26.1998 60.8001 25.2998 59.6999 25.2998 58.3999C25.2998 48.5999 25.2998 38.6999 25.2998 28.8999C25.2998 27.2999 26.4998 26.2 28.0998 26.2C28.8998 26.2 29.5998 26.2 30.3998 26.2C30.4998 26.2 30.6998 26.2 30.7998 26.2C30.7998 25.8 30.7998 25.2999 30.7998 24.8999C30.7998 23.4999 31.4998 22.5 32.6998 21.8C33.1998 21.5 33.7998 21.4 34.2998 21.2C41.1998 21.2 48.1998 21.2 55.0998 21.2L55.1998 21.3C57.2998 21.7 58.4998 23.2 58.4998 25.3C58.4998 27.8 58.4998 30.3 58.4998 32.8C58.4998 39.4 58.4998 45.9 58.4998 52.5C58.4998 53.3 58.2998 54.0001 57.8998 54.6001C57.0998 55.8001 55.8998 56.3 54.4998 56.3C53.9998 56.3 53.5998 56.3 53.0998 56.3C53.0998 57.1 53.0998 57.9 53.0998 58.7C53.0998 59.7999 52.2998 60.7999 51.2998 61.2C50.9998 61.1 50.7998 61.2 50.6998 61.2ZM50.4998 43.7C50.4998 38.9 50.4998 34.1 50.4998 29.2C50.4998 28.6 50.4998 28.6001 49.8998 28.6001C42.6998 28.6001 35.4998 28.6001 28.2998 28.6001C27.6998 28.6001 27.6998 28.6 27.6998 29.2C27.6998 38.8 27.6998 48.4001 27.6998 58.1001C27.6998 58.7001 27.6998 58.7 28.2998 58.7C35.4998 58.7 42.6998 58.7 49.8998 58.7C50.4998 58.7 50.4998 58.7001 50.4998 58.1001C50.4998 53.4001 50.4998 48.5 50.4998 43.7ZM52.9998 53.7C53.4998 53.7 53.9998 53.7 54.3998 53.7C55.3998 53.7 55.9998 53.2001 55.9998 52.1001C55.9998 44.9001 55.9998 37.5999 55.9998 30.3999C55.9998 28.5999 55.9998 26.8 55.9998 25C55.9998 24.4 55.6998 23.9 55.0998 23.7C54.8998 23.6 54.5998 23.6001 54.3998 23.6001C47.9998 23.6001 41.4998 23.6001 35.0998 23.6001C34.9998 23.6001 34.8998 23.6001 34.6998 23.6001C34.0998 23.6001 33.4998 24 33.3998 24.5C33.2998 25 33.3998 25.5001 33.3998 26.1001C33.5998 26.1001 33.6998 26.1001 33.8998 26.1001C39.2998 26.1001 44.7998 26.1001 50.1998 26.1001C51.1998 26.1001 51.9998 26.4 52.4998 27.2C52.8998 27.8 52.9998 28.4001 52.9998 29.1001C52.9998 37.1001 52.9998 45.1001 52.9998 53.1001C52.9998 53.3001 52.9998 53.5 52.9998 53.7Z" fill="#93B5C5"/>
<path d="M50.5002 43.7C50.5002 48.5 50.5002 53.3001 50.5002 58.1001C50.5002 58.7001 50.5002 58.7 49.9002 58.7C42.7002 58.7 35.5002 58.7 28.3002 58.7C27.7002 58.7 27.7002 58.7001 27.7002 58.1001C27.7002 48.5001 27.7002 38.9 27.7002 29.2C27.7002 28.6 27.7002 28.6001 28.3002 28.6001C35.5002 28.6001 42.7002 28.6001 49.9002 28.6001C50.5002 28.6001 50.5002 28.6 50.5002 29.2C50.5002 34.1 50.5002 38.9 50.5002 43.7ZM39.4002 38.1001C41.3002 38.1001 43.3002 38.1001 45.2002 38.1001C45.5002 38.1001 45.8002 37.9999 46.0002 37.8999C46.5002 37.5999 46.7002 37.1 46.5002 36.5C46.3002 35.9 45.9002 35.6001 45.2002 35.6001C41.3002 35.6001 37.5002 35.6001 33.6002 35.6001C32.7002 35.6001 32.2002 36.0999 32.2002 36.8999C32.2002 37.5999 32.8002 38.1001 33.6002 38.1001C35.5002 38.1001 37.4002 38.1001 39.4002 38.1001ZM39.3002 43.1001C41.2002 43.1001 43.2002 43.1001 45.1002 43.1001C46.0002 43.1001 46.5002 42.6 46.5002 41.8C46.5002 41.1 45.9002 40.6001 45.1002 40.6001C43.2002 40.6001 41.4002 40.6001 39.5002 40.6001C37.5002 40.6001 35.5002 40.6001 33.5002 40.6001C32.9002 40.6001 32.5002 40.7999 32.3002 41.3999C31.9002 42.1999 32.5002 43.1001 33.5002 43.1001C35.4002 43.1001 37.4002 43.1001 39.3002 43.1001ZM39.4002 48.1001C41.3002 48.1001 43.3002 48.1001 45.2002 48.1001C46.0002 48.1001 46.6002 47.6 46.6002 46.8C46.6002 46.1 46.0002 45.6001 45.2002 45.6001C41.3002 45.6001 37.5002 45.6001 33.6002 45.6001C33.5002 45.6001 33.3002 45.6001 33.2002 45.6001C32.6002 45.7001 32.1002 46.3 32.2002 47C32.3002 47.6 32.8002 48.1001 33.5002 48.1001C35.4002 48.1001 37.4002 48.1001 39.4002 48.1001Z" fill="white"/>
<path d="M52.9999 53.7C52.9999 53.5 52.9999 53.3 52.9999 53.2C52.9999 45.2 52.9999 37.2 52.9999 29.2C52.9999 28.5 52.8999 27.9 52.4999 27.3C51.8999 26.5 51.0999 26.2 50.1999 26.2C44.7999 26.2 39.2999 26.2 33.8999 26.2C33.6999 26.2 33.5999 26.2 33.3999 26.2C33.3999 25.7 33.2999 25.1001 33.3999 24.6001C33.4999 24.1001 34.0999 23.7 34.6999 23.7C34.7999 23.7 34.8999 23.7 35.0999 23.7C41.4999 23.7 47.9999 23.7 54.3999 23.7C54.5999 23.7 54.8999 23.7 55.0999 23.8C55.6999 24 55.9999 24.4001 55.9999 25.1001C55.9999 26.9001 55.9999 28.7 55.9999 30.5C55.9999 37.7 55.9999 45 55.9999 52.2C55.9999 53.2 55.4999 53.8 54.3999 53.8C53.8999 53.7 53.4999 53.7 52.9999 53.7Z" fill="white"/>
<path d="M39.3998 38.1001C37.4998 38.1001 35.5998 38.1001 33.6998 38.1001C32.7998 38.1001 32.2998 37.5999 32.2998 36.8999C32.2998 36.0999 32.8998 35.6001 33.6998 35.6001C37.5998 35.6001 41.3998 35.6001 45.2998 35.6001C45.9998 35.6001 46.3998 35.9 46.5998 36.5C46.7998 37 46.5998 37.5999 46.0998 37.8999C45.8998 37.9999 45.4998 38.1001 45.2998 38.1001C43.1998 38.1001 41.2998 38.1001 39.3998 38.1001Z" fill="#93B5C5"/>
<path d="M39.2995 43.1001C37.2995 43.1001 35.3995 43.1001 33.3995 43.1001C32.3995 43.1001 31.7995 42.1999 32.1995 41.3999C32.3995 40.8999 32.8995 40.6001 33.3995 40.6001C35.3995 40.6001 37.3995 40.6001 39.3995 40.6001C41.2995 40.6001 43.0995 40.6001 44.9995 40.6001C45.7995 40.6001 46.3995 41.1 46.3995 41.8C46.3995 42.6 45.7995 43.1001 44.9995 43.1001C43.1995 43.1001 41.2995 43.1001 39.2995 43.1001Z" fill="#93B5C5"/>
<path d="M39.3993 48.1001C37.3993 48.1001 35.3993 48.1001 33.4993 48.1001C32.7993 48.1001 32.2993 47.6 32.1993 47C32.0993 46.4 32.5993 45.8001 33.1993 45.6001C33.2993 45.6001 33.4993 45.6001 33.5993 45.6001C37.4993 45.6001 41.2993 45.6001 45.1993 45.6001C45.9993 45.6001 46.5993 46.1 46.5993 46.8C46.5993 47.5 45.9993 48.1001 45.1993 48.1001C43.1993 48.1001 41.2993 48.1001 39.3993 48.1001Z" fill="#93B5C5"/>
</svg>
