<svg width="37" height="37" viewBox="0 0 37 37" fill="none" xmlns="http://www.w3.org/2000/svg">
<path d="M18.5 36C8.8 36 1 28.2 1 18.5C1 8.8 8.8 1 18.5 1C28.2 1 36 8.8 36 18.5C36 28.2 28.2 36 18.5 36Z" stroke="#8FC3D8" stroke-miterlimit="10"/>
<path d="M25.8001 12.3L24.9001 11.4C23.8001 10.3 22.0001 10.3 20.9001 11.4L13.1 19.2C12.8 19.5 12.5001 19.8 12.3001 20.1L10.7 25C10.5 25.6 10.8001 26.2 11.4001 26.4C11.5001 26.4 11.6001 26.5 11.8001 26.5C11.9001 26.5 12 26.5 12.2 26.4L17.1 24.8C17.5 24.6 17.8001 24.4 18.0001 24L25.3001 16.7L25.8001 16.2C25.9001 16.1 26 16 26.1 15.9L21.3001 11.1L26.1 15.9C26.9 14.9 26.8001 13.3 25.8001 12.3ZM12.4001 20.2L17.1 24.9L12.4001 20.2Z" stroke="#8FC3D8" stroke-miterlimit="10"/>
</svg>
