<svg width="26" height="25" viewBox="0 0 26 25" fill="none" xmlns="http://www.w3.org/2000/svg">
<path d="M13.2 25C6.30001 25 0.700012 19.4 0.700012 12.5C0.700012 5.6 6.30001 0 13.2 0C20.1 0 25.7 5.6 25.7 12.5C25.7 19.4 20.1 25 13.2 25Z" fill="#16B6C0"/>
<path d="M13.2 7.50003C15.1 7.50003 16.9 7.50003 18.8 7.50003C19.8 7.50003 20.3 8.20003 20.3 9.00003C20.3 11.3 20.3 13.7 20.3 16C20.3 16.7 19.9 17.2 19.2 17.4C19.1 17.4 18.9 17.4 18.8 17.4C15.1 17.4 11.3 17.4 7.59998 17.4C6.69998 17.4 6.09998 16.8 6.09998 15.9C6.09998 13.6 6.09998 11.2 6.09998 8.90002C6.09998 8.00002 6.69998 7.40002 7.59998 7.40002C9.49998 7.50002 11.3 7.50003 13.2 7.50003ZM19.1 9.20003C19 9.30003 18.9 9.40002 18.8 9.40002C17.1 10.8 15.3 12.2 13.6 13.5C13.3 13.8 13 13.8 12.7 13.5C11.3 12.4 9.90002 11.2 8.40002 10.1C8.00002 9.80004 7.59998 9.50004 7.09998 9.10004C7.09998 9.20004 7.09998 9.30002 7.09998 9.40002C7.09998 11.5 7.09998 13.7 7.09998 15.8C7.09998 16.2 7.1 16.2 7.5 16.2C11.2 16.2 14.8 16.2 18.5 16.2C18.9 16.2 18.9 16.2 18.9 15.8C18.9 13.7 18.9 11.5 18.9 9.40002C19.1 9.40002 19.1 9.40003 19.1 9.20003ZM8.29999 8.60004C8.39999 8.70004 8.40002 8.70003 8.40002 8.70003C9.90002 9.90003 11.5 11.1 13 12.3C13.1 12.4 13.2 12.4 13.3 12.3C14.8 11.1 16.3 9.90003 17.8 8.70003L17.9 8.60004C14.8 8.60004 11.6 8.60004 8.29999 8.60004Z" fill="white"/>
</svg>
