<svg width="13" height="17" viewBox="0 0 13 17" fill="none" xmlns="http://www.w3.org/2000/svg">
<path d="M5.92072 12.3972C5.92072 12.2998 5.91586 12.2023 5.92072 12.1048C5.93044 11.8368 5.90614 11.6175 5.69237 11.3884C5.29884 10.9742 5.39601 10.3113 5.83812 9.94096C6.27053 9.57544 6.92642 9.62905 7.29566 10.0579C7.66976 10.4868 7.64061 11.135 7.21793 11.52C7.12561 11.6077 7.08675 11.6857 7.08675 11.8124C7.09646 12.212 7.09161 12.6165 7.09161 13.0162C7.09161 13.3719 6.84382 13.6351 6.51831 13.6449C6.18793 13.6497 5.93044 13.3817 5.92558 13.0162C5.92072 12.8115 5.92072 12.6019 5.92072 12.3972Z" fill="#BFBDC7"/>
<path d="M12.9964 7.87953C12.9964 7.72358 12.9964 7.56275 12.9672 7.4068C12.7777 6.34436 11.9858 5.59384 10.9412 5.46225V4.79458C10.9412 2.3578 8.96384 0.374268 6.53462 0.374268H6.46174C4.03251 0.374268 2.05512 2.3578 2.05512 4.79458V5.45738C2.00168 5.46225 1.9531 5.472 1.90451 5.48175C0.767635 5.70106 0.0097169 6.64165 0.00485845 7.82592C0 9.88256 0 11.9441 0 14.0007C0 14.1469 0.00485845 14.2931 0.0291507 14.4393C0.242923 15.6139 1.18546 16.3936 2.38064 16.3936C5.10623 16.3936 7.83182 16.3936 10.5623 16.3936C11.9955 16.3936 12.9964 15.3994 12.9964 13.9617C13.0012 11.9343 13.0012 9.90693 12.9964 7.87953ZM3.26974 4.79458C3.26974 3.03035 4.70298 1.59265 6.46174 1.59265H6.53947C8.29823 1.59265 9.73148 3.03035 9.73148 4.79458V5.20883H3.26974V4.79458ZM11.8303 13.9812C11.8303 14.7415 11.3396 15.224 10.5866 15.2288C9.22134 15.2288 7.85126 15.2288 6.48603 15.2288C5.13052 15.2288 3.77502 15.2288 2.42437 15.2288C1.64701 15.2288 1.16603 14.7464 1.16603 13.9617C1.16603 11.9343 1.16603 9.90205 1.16603 7.87466C1.16603 7.09489 1.65187 6.60754 2.42923 6.60754C5.1451 6.60754 7.86097 6.60754 10.572 6.60754C11.3396 6.60754 11.8303 7.09002 11.8303 7.85516C11.8352 9.89718 11.8352 11.9392 11.8303 13.9812Z" fill="#BFBDC7"/>
</svg>
