<svg width="26" height="26" viewBox="0 0 26 26" fill="none" xmlns="http://www.w3.org/2000/svg">
<path d="M13.3999 25.1999C6.4999 25.1999 0.899902 19.5999 0.899902 12.6999C0.899902 5.79989 6.4999 0.199951 13.3999 0.199951C20.2999 0.199951 25.8999 5.79989 25.8999 12.6999C25.8999 19.5999 20.2999 25.1999 13.3999 25.1999Z" fill="#93B5C5"/>
<path d="M13.2999 7.69989C15.1999 7.69989 16.9999 7.69989 18.8999 7.69989C19.8999 7.69989 20.3999 8.39989 20.3999 9.19989C20.3999 11.4999 20.3999 13.8998 20.3999 16.1998C20.3999 16.8998 19.9999 17.3999 19.2999 17.5999C19.1999 17.5999 18.9999 17.5999 18.8999 17.5999C15.1999 17.5999 11.4 17.5999 7.69995 17.5999C6.79995 17.5999 6.19995 16.9999 6.19995 16.0999C6.19995 13.7999 6.19995 11.3999 6.19995 9.09985C6.19995 8.19985 6.79995 7.59985 7.69995 7.59985C9.59995 7.69985 11.4999 7.69989 13.2999 7.69989ZM19.2999 9.49988C19.1999 9.59988 19.0999 9.69989 18.9999 9.69989C17.2999 11.0999 15.4999 12.4999 13.7999 13.7999C13.4999 14.0999 13.1999 14.0999 12.8999 13.7999C11.4999 12.6999 10.0999 11.4999 8.59995 10.3999C8.19995 10.0999 7.79993 9.7999 7.29993 9.3999C7.29993 9.4999 7.29993 9.59989 7.29993 9.69989C7.29993 11.7999 7.29993 13.9999 7.29993 16.0999C7.29993 16.4999 7.29995 16.4999 7.69995 16.4999C11.4 16.4999 15 16.4999 18.7 16.4999C19.1 16.4999 19.0999 16.4999 19.0999 16.0999C19.0999 13.9999 19.0999 11.7999 19.0999 9.69989C19.2999 9.69989 19.2999 9.59988 19.2999 9.49988ZM8.49994 8.8999C8.59994 8.9999 8.59995 8.99988 8.59995 8.99988C10.0999 10.1999 11.7 11.3999 13.2 12.5999C13.3 12.6999 13.3999 12.6999 13.4999 12.5999C14.9999 11.3999 16.4999 10.1999 17.9999 8.99988L18.0999 8.8999C14.8999 8.8999 11.7999 8.8999 8.49994 8.8999Z" fill="white"/>
</svg>
