<svg width="17" height="14" viewBox="0 0 17 14" fill="none" xmlns="http://www.w3.org/2000/svg">
<path d="M3.5 1.19995H13.5C14.6 1.19995 15.5 2.09995 15.5 3.19995V11.2C15.5 12.3 14.6 13.2 13.5 13.2H3.5C2.4 13.2 1.5 12.3 1.5 11.2V3.19995C1.5 2.09995 2.4 1.19995 3.5 1.19995Z" fill="white"/>
<path d="M13.5 13.7H3.5C2.1 13.7 1 12.6 1 11.2V3.19995C1 1.79995 2.1 0.699951 3.5 0.699951H13.5C14.9 0.699951 16 1.79995 16 3.19995V11.2C16 12.6 14.9 13.7 13.5 13.7ZM3.5 1.69995C2.7 1.69995 2 2.39995 2 3.19995V11.2C2 12 2.7 12.7 3.5 12.7H13.5C14.3 12.7 15 12 15 11.2V3.19995C15 2.39995 14.3 1.69995 13.5 1.69995H3.5Z" fill="#93B5C5"/>
<path d="M2.5 1.19995H11.5C12.6 1.19995 13.5 2.09995 13.5 3.19995V11.2C13.5 12.3 12.6 13.2 11.5 13.2H2.5C1.4 13.2 0.5 12.3 0.5 11.2V3.19995C0.5 2.09995 1.4 1.19995 2.5 1.19995Z" fill="white"/>
<path d="M11.5 13.7H2.5C1.1 13.7 0 12.6 0 11.2V3.19995C0 1.79995 1.1 0.699951 2.5 0.699951H11.5C12.9 0.699951 14 1.79995 14 3.19995V11.2C14 12.6 12.9 13.7 11.5 13.7ZM2.5 1.69995C1.7 1.69995 1 2.39995 1 3.19995V11.2C1 12 1.7 12.7 2.5 12.7H11.5C12.3 12.7 13 12 13 11.2V3.19995C13 2.39995 12.3 1.69995 11.5 1.69995H2.5Z" fill="#93B5C5"/>
<path d="M11 5.69995H16C16.3 5.69995 16.5 5.89995 16.5 6.19995V8.19995C16.5 8.49995 16.3 8.69995 16 8.69995H11C10.2 8.69995 9.5 7.99995 9.5 7.19995C9.5 6.39995 10.2 5.69995 11 5.69995Z" fill="white"/>
<path d="M16 9.19995H11C9.9 9.19995 9 8.29995 9 7.19995C9 6.09995 9.9 5.19995 11 5.19995H16C16.6 5.19995 17 5.59995 17 6.19995V8.19995C17 8.79995 16.6 9.19995 16 9.19995ZM11 6.19995C10.4 6.19995 10 6.59995 10 7.19995C10 7.79995 10.4 8.19995 11 8.19995H16V6.19995H11Z" fill="#93B5C5"/>
<path d="M11 7.69995C11.2761 7.69995 11.5 7.47609 11.5 7.19995C11.5 6.92381 11.2761 6.69995 11 6.69995C10.7239 6.69995 10.5 6.92381 10.5 7.19995C10.5 7.47609 10.7239 7.69995 11 7.69995Z" fill="#93B5C5"/>
<path d="M2.49921 10.1081C2.39921 10.1081 2.19922 10.1081 2.09922 10.0081C1.89922 9.80806 1.89922 9.50805 2.09922 9.30805L2.99921 8.40806C3.19921 8.20806 3.49922 8.20806 3.69922 8.40806C3.89922 8.60806 3.89922 8.90807 3.69922 9.10807L2.7992 10.0081C2.7992 10.0081 2.69921 10.1081 2.49921 10.1081Z" fill="#93B5C5"/>
<path d="M6.59882 6.20792C6.49882 6.20792 6.29883 6.20792 6.19883 6.10792C5.99883 5.90792 5.99883 5.6079 6.19883 5.4079L7.09882 4.50791C7.29882 4.30791 7.5988 4.30791 7.7988 4.50791C7.9988 4.70791 7.9988 5.00792 7.7988 5.20792L6.89881 6.10792C6.89881 6.20792 6.69882 6.20792 6.59882 6.20792Z" fill="#93B5C5"/>
<path d="M4.99921 11.0079C4.49921 11.0079 3.99921 10.9079 3.49921 10.7079C3.29921 10.6079 3.19922 10.5079 3.19922 10.3079C3.19922 10.1079 3.19919 10.0079 3.29919 9.80785L4.49921 8.60787C4.69921 8.40787 4.99922 8.40787 5.19922 8.60787C5.39922 8.80787 5.39922 9.10785 5.19922 9.30785L4.69922 9.80785C4.79922 9.80785 4.89921 9.80785 5.09921 9.80785C6.29921 9.80785 7.09921 9.20788 7.09921 8.70788C7.09921 8.30788 6.7992 8.00785 6.3992 7.80785C6.0992 7.70785 5.99921 7.40788 6.09921 7.20788C6.19921 6.90788 6.49922 6.80786 6.69922 6.90786C7.49922 7.20786 7.99921 7.90788 8.09921 8.70788C7.99921 10.1079 6.69921 11.0079 4.99921 11.0079Z" fill="#93B5C5"/>
<path d="M3.60001 7.40796C3.50001 7.40796 3.49999 7.40796 3.39999 7.40796C2.59999 7.10796 2.1 6.40797 2 5.60797C2 4.30797 3.3 3.40796 5 3.40796C5.5 3.40796 6 3.50798 6.5 3.70798C6.7 3.80798 6.79999 3.90797 6.79999 4.10797C6.79999 4.30797 6.80001 4.40797 6.70001 4.60797L5.5 5.80795C5.3 6.00795 4.99999 6.00795 4.79999 5.80795C4.59999 5.60795 4.59999 5.30797 4.79999 5.10797L5.29999 4.60797C5.19999 4.60797 4.99999 4.60797 4.89999 4.60797C3.69999 4.60797 2.89999 5.20798 2.89999 5.70798C2.89999 6.10798 3.20001 6.40797 3.60001 6.60797C3.90001 6.70797 3.99999 7.00798 3.89999 7.20798C3.99999 7.30798 3.80001 7.40796 3.60001 7.40796Z" fill="#93B5C5"/>
</svg>
