<svg width="17" height="14" viewBox="0 0 17 14" fill="none" xmlns="http://www.w3.org/2000/svg">
<path d="M2.5 1.19995H14.5C15.6 1.19995 16.5 2.09995 16.5 3.19995V11.2C16.5 12.3 15.6 13.2 14.5 13.2H2.5C1.4 13.2 0.5 12.3 0.5 11.2V3.19995C0.5 2.09995 1.4 1.19995 2.5 1.19995Z" fill="white"/>
<path d="M14.5 13.7H2.5C1.1 13.7 0 12.6 0 11.2V3.19995C0 1.79995 1.1 0.699951 2.5 0.699951H10.5C10.8 0.699951 11 0.899951 11 1.19995C11 1.49995 10.8 1.69995 10.5 1.69995H2.5C1.7 1.69995 1 2.39995 1 3.19995V11.2C1 12 1.7 12.7 2.5 12.7H14.5C15.3 12.7 16 12 16 11.2V6.69995C16 6.39995 16.2 6.19995 16.5 6.19995C16.8 6.19995 17 6.39995 17 6.69995V11.2C17 12.6 15.9 13.7 14.5 13.7Z" fill="#93B5C5"/>
<path d="M7.60001 10.7C7.30001 10.7 7.10001 10.5 7.10001 10.2V6.59995C7.10001 6.09995 6.70001 5.69995 6.20001 5.69995H4.89999C4.39999 5.69995 4 6.09995 4 6.59995V10.2C4 10.5 3.8 10.7 3.5 10.7C3.2 10.7 3 10.5 3 10.2V6.59995C3 5.59995 3.79999 4.69995 4.89999 4.69995H6.20001C7.20001 4.69995 8.10001 5.49995 8.10001 6.59995V10.2C8.10001 10.5 7.90001 10.7 7.60001 10.7Z" fill="#93B5C5"/>
<path d="M11.1996 10.6999C10.8996 10.6999 10.6996 10.4999 10.6996 10.1999V7.99985C10.6996 7.49985 10.2996 7.09985 9.79959 7.09985H7.59961C7.29961 7.09985 7.09961 6.89985 7.09961 6.59985C7.09961 6.29985 7.29961 6.09985 7.59961 6.09985H9.79959C10.7996 6.09985 11.6996 6.89985 11.6996 7.99985V10.1999C11.6996 10.4999 11.3996 10.6999 11.1996 10.6999Z" fill="#93B5C5"/>
<path d="M14.9992 3.59995H12.8992C12.5992 3.59995 12.3992 3.39995 12.3992 3.09995C12.3992 2.79995 12.5992 2.59995 12.8992 2.59995H14.9992C15.1992 2.59995 15.3992 2.39995 15.3992 2.19995V2.09995C15.3992 1.99995 15.3992 1.89993 15.2992 1.79993C15.1992 1.69993 15.0992 1.69995 14.9992 1.69995H12.1992C11.8992 1.69995 11.6992 1.49995 11.6992 1.19995C11.6992 0.899951 11.8992 0.699951 12.1992 0.699951H14.9992C15.3992 0.699951 15.7992 0.899945 15.9992 1.09995C16.1992 1.29995 16.3992 1.59994 16.3992 1.99994C16.3992 2.09994 16.3992 2.09995 16.3992 2.19995C16.4992 2.99995 15.7992 3.59995 14.9992 3.59995Z" fill="#93B5C5"/>
<path d="M15.9996 5.70001H12.5996C11.7996 5.70001 11.0996 5.00001 11.0996 4.20001V4C11.0996 3.2 11.7996 2.5 12.5996 2.5H14.6996C14.9996 2.5 15.1996 2.7 15.1996 3C15.1996 3.3 14.9996 3.5 14.6996 3.5H12.5996C12.3996 3.5 12.0996 3.7 12.0996 4V4.20001C12.0996 4.40001 12.2996 4.70001 12.5996 4.70001H15.9996C16.2996 4.70001 16.4996 4.90001 16.4996 5.20001C16.4996 5.50001 16.2996 5.70001 15.9996 5.70001Z" fill="#93B5C5"/>
</svg>
