<svg width="14" height="16" viewBox="0 0 14 16" fill="none" xmlns="http://www.w3.org/2000/svg">
<path d="M7.09961 1.09985C3.79961 1.09985 1.09961 3.79985 1.09961 7.09985C1.09961 10.3999 3.09965 12.1999 4.69965 13.6999C5.39965 14.2999 5.99966 14.8999 6.39966 15.1999C6.79966 15.4999 7.29965 15.4999 7.69965 15.1999C8.09965 14.7999 8.69966 14.2999 9.39966 13.6999C10.9997 12.1999 12.9996 10.3999 12.9996 7.09985C13.0996 3.69985 10.3996 1.09985 7.09961 1.09985ZM6.99963 10.0999C5.39963 9.99985 4.09965 8.69985 4.19965 7.09985C4.29965 5.49985 5.59965 4.19984 7.19965 4.29984C8.79965 4.39984 10.0996 5.69984 9.99963 7.29984C9.99963 8.09984 9.69961 8.79984 9.09961 9.29984C8.59961 9.89984 7.79963 10.1999 6.99963 10.0999Z" fill="white"/>
<path d="M7.09961 15.8999C6.69961 15.8999 6.39961 15.7999 6.09961 15.5999C5.49961 15.0999 4.89966 14.5999 4.39966 14.0999L4.29962 13.9999C2.69962 12.4999 0.599609 10.6 0.599609 7.19995C0.599609 3.59995 3.49961 0.699951 7.09961 0.699951C8.79961 0.699951 10.4996 1.39995 11.6996 2.59995C12.8996 3.79995 13.5996 5.49995 13.5996 7.19995C13.5996 10.6 11.5997 12.4999 9.89966 14.0999L9.79962 14.2C9.09962 14.8 8.49961 15.4 8.09961 15.7C7.79961 15.8 7.49961 15.8999 7.09961 15.8999ZM7.09961 1.59995C4.09961 1.59995 1.59961 4.09995 1.59961 7.09995C1.59961 10.0999 3.39963 11.8 4.99963 13.2L5.09961 13.2999C5.59961 13.7999 6.19962 14.2999 6.79962 14.7999C6.99962 14.8999 7.29966 14.8999 7.39966 14.7999C7.79966 14.3999 8.39961 13.8999 9.09961 13.2999L9.19965 13.2C10.7996 11.7 12.5996 10.0999 12.5996 7.09995C12.5996 5.59995 11.9996 4.19995 10.9996 3.19995C9.99963 2.09995 8.59961 1.59995 7.09961 1.59995ZM7.09961 10.5999H6.99963C5.09963 10.4999 3.59965 8.89995 3.69965 7.09995C3.79965 5.19994 5.29961 3.79993 7.09961 3.79993H7.19965C9.09965 3.89993 10.5996 5.49993 10.4996 7.29993C10.4996 8.19993 10.0996 8.99994 9.49963 9.59995C8.79963 10.2999 7.99961 10.5999 7.09961 10.5999ZM7.09961 4.79993C5.79961 4.79993 4.69965 5.79994 4.69965 7.09995C4.69965 8.39995 5.69963 9.59995 6.99963 9.59995C7.69963 9.59995 8.29962 9.39993 8.79962 8.89993C9.29962 8.49993 9.49963 7.89995 9.49963 7.19995C9.59963 5.99995 8.49961 4.79993 7.09961 4.79993Z" fill="#93B5C5"/>
</svg>
