<svg width="18" height="14" viewBox="0 0 18 14" fill="none" xmlns="http://www.w3.org/2000/svg">
<path d="M2.5 1.19995H7.5C8.1 1.19995 8.5 1.59995 8.5 2.19995V9.19995C8.5 9.79995 8.1 10.2 7.5 10.2H2.5C1.9 10.2 1.5 9.79995 1.5 9.19995V2.19995C1.5 1.69995 2 1.19995 2.5 1.19995Z" fill="white"/>
<path d="M7.5 11.2H2.5C1.4 11.2 0.5 10.3 0.5 9.19995V2.19995C0.5 1.09995 1.4 0.199951 2.5 0.199951H7.5C8.6 0.199951 9.5 1.09995 9.5 2.19995V9.19995C9.5 10.3 8.6 11.2 7.5 11.2ZM2.5 1.19995C1.9 1.19995 1.5 1.59995 1.5 2.19995V9.19995C1.5 9.79995 1.9 10.2 2.5 10.2H7.5C8.1 10.2 8.5 9.79995 8.5 9.19995V2.19995C8.5 1.59995 8.1 1.19995 7.5 1.19995H2.5Z" fill="#93B5C5"/>
<path d="M2.5 3.19995H15.5C16.1 3.19995 16.5 3.59995 16.5 4.19995V11.2C16.5 11.8 16.1 12.2 15.5 12.2H2.5C1.9 12.2 1.5 11.8 1.5 11.2V4.19995C1.5 3.69995 2 3.19995 2.5 3.19995Z" fill="white"/>
<path d="M15.5 13.2H2.5C1.4 13.2 0.5 12.3 0.5 11.2V4.19995C0.5 3.09995 1.4 2.19995 2.5 2.19995H15.5C16.6 2.19995 17.5 3.09995 17.5 4.19995V11.2C17.5 12.3 16.6 13.2 15.5 13.2ZM2.5 3.19995C1.9 3.19995 1.5 3.59995 1.5 4.19995V11.2C1.5 11.8 1.9 12.2 2.5 12.2H15.5C16.1 12.2 16.5 11.8 16.5 11.2V4.19995C16.5 3.59995 16.1 3.19995 15.5 3.19995H2.5Z" fill="#93B5C5"/>
<path d="M6 5.19995H7C7.3 5.19995 7.5 5.39995 7.5 5.69995V9.69995C7.5 9.99995 7.3 10.2 7 10.2H6C5.7 10.2 5.5 9.99995 5.5 9.69995V5.69995C5.5 5.39995 5.7 5.19995 6 5.19995Z" fill="#93B5C5"/>
<path d="M7.5 5.19995H5.5V10.2H7.5V5.19995Z" fill="#93B5C5"/>
<path d="M13 5.19995H14C14.3 5.19995 14.5 5.39995 14.5 5.69995V9.69995C14.5 9.99995 14.3 10.2 14 10.2H13C12.7 10.2 12.5 9.99995 12.5 9.69995V5.69995C12.5 5.39995 12.7 5.19995 13 5.19995Z" fill="#93B5C5"/>
<path d="M14.5 5.19995H12.5V10.2H14.5V5.19995Z" fill="#93B5C5"/>
<path d="M4 10.2C3.7 10.2 3.5 9.99995 3.5 9.69995V5.69995C3.5 5.39995 3.7 5.19995 4 5.19995C4.3 5.19995 4.5 5.39995 4.5 5.69995V9.69995C4.5 9.99995 4.3 10.2 4 10.2Z" fill="#93B5C5"/>
<path d="M9 10.2C8.7 10.2 8.5 9.99995 8.5 9.69995V5.69995C8.5 5.39995 8.7 5.19995 9 5.19995C9.3 5.19995 9.5 5.39995 9.5 5.69995V9.69995C9.5 9.99995 9.3 10.2 9 10.2Z" fill="#93B5C5"/>
<path d="M11 10.2C10.7 10.2 10.5 9.99995 10.5 9.69995V5.69995C10.5 5.39995 10.7 5.19995 11 5.19995C11.3 5.19995 11.5 5.39995 11.5 5.69995V9.69995C11.5 9.99995 11.3 10.2 11 10.2Z" fill="#93B5C5"/>
</svg>
