<svg width="14" height="18" viewBox="0 0 14 18" fill="none" xmlns="http://www.w3.org/2000/svg">
<path d="M2.4996 1.7998H11.6996C12.1996 1.7998 12.5996 2.19983 12.5996 2.69983V15.5998C12.5996 16.0998 12.1996 16.4998 11.6996 16.4998H2.4996C1.9996 16.4998 1.59961 16.0998 1.59961 15.5998V2.69983C1.59961 2.19983 1.9996 1.7998 2.4996 1.7998Z" fill="white"/>
<path d="M11.6996 17.5999H2.4996C1.4996 17.5999 0.599609 16.7999 0.599609 15.6999V2.79987C0.599609 1.79987 1.3996 0.899902 2.4996 0.899902H11.6996C12.6996 0.899902 13.5996 1.69987 13.5996 2.79987V15.6999C13.5996 16.6999 12.7996 17.5999 11.6996 17.5999ZM2.4996 1.8999C1.9996 1.8999 1.59961 2.29987 1.59961 2.79987V15.6999C1.59961 16.1999 1.9996 16.5999 2.4996 16.5999H11.6996C12.1996 16.5999 12.5996 16.1999 12.5996 15.6999V2.79987C12.5996 2.29987 12.1996 1.8999 11.6996 1.8999H2.4996Z" fill="#93B5C5"/>
<path d="M10.4004 5.59985H3.90039C3.60039 5.59985 3.40039 5.39985 3.40039 5.09985C3.40039 4.79985 3.60039 4.59985 3.90039 4.59985H10.4004C10.7004 4.59985 10.9004 4.79985 10.9004 5.09985C10.9004 5.39985 10.6004 5.59985 10.4004 5.59985Z" fill="#93B5C5"/>
<path d="M10.4004 8.2998H3.90039C3.60039 8.2998 3.40039 8.0998 3.40039 7.7998C3.40039 7.4998 3.60039 7.2998 3.90039 7.2998H10.4004C10.7004 7.2998 10.9004 7.4998 10.9004 7.7998C10.9004 8.0998 10.6004 8.2998 10.4004 8.2998Z" fill="#93B5C5"/>
<path d="M10.4004 11.0999H3.90039C3.60039 11.0999 3.40039 10.8999 3.40039 10.5999C3.40039 10.2999 3.60039 10.0999 3.90039 10.0999H10.4004C10.7004 10.0999 10.9004 10.2999 10.9004 10.5999C10.9004 10.8999 10.6004 11.0999 10.4004 11.0999Z" fill="#93B5C5"/>
<path d="M7.60034 13.8999H3.90039C3.60039 13.8999 3.40039 13.6999 3.40039 13.3999C3.40039 13.0999 3.60039 12.8999 3.90039 12.8999H7.60034C7.90034 12.8999 8.10034 13.0999 8.10034 13.3999C8.10034 13.6999 7.90034 13.8999 7.60034 13.8999Z" fill="#93B5C5"/>
</svg>
