<svg width="26" height="25" viewBox="0 0 26 25" fill="none" xmlns="http://www.w3.org/2000/svg">
<path d="M13.2 25C6.30001 25 0.700012 19.4 0.700012 12.5C0.700012 5.6 6.30001 0 13.2 0C20.1 0 25.7 5.6 25.7 12.5C25.7 19.4 20.1 25 13.2 25Z" fill="#16B6C0"/>
<path d="M16.3 4.80005H10C9.2 4.80005 8.59998 5.40004 8.59998 6.20004V18.5C8.59998 19.3 9.2 19.9 10 19.9H16.3C17.1 19.9 17.7 19.3 17.7 18.5V6.20004C17.7 5.40004 17.1 4.80005 16.3 4.80005ZM14.5 5.80005L14.3 5.70004H12.1L11.9 5.80005H14.5ZM16.7 18.4C16.7 18.6 16.5 18.7 16.4 18.7H10C9.8 18.7 9.70001 18.5 9.70001 18.4V6.10005C9.70001 5.90005 9.9 5.80005 10 5.80005H11C11 5.80005 11.7 6.50005 11.9 6.50005H14.4C14.6 6.50005 15.3 5.80005 15.3 5.80005H16.3C16.5 5.80005 16.6 6.00005 16.6 6.10005V18.4H16.7Z" fill="white"/>
<path d="M13.2 18.0001C13.5866 18.0001 13.9 17.6867 13.9 17.3001C13.9 16.9135 13.5866 16.6001 13.2 16.6001C12.8134 16.6001 12.5 16.9135 12.5 17.3001C12.5 17.6867 12.8134 18.0001 13.2 18.0001Z" fill="white"/>
</svg>
