<svg width="26" height="26" viewBox="0 0 26 26" fill="none" xmlns="http://www.w3.org/2000/svg">
<path d="M13.3999 25.3C6.4999 25.3 0.899902 19.7 0.899902 12.8C0.899902 5.90005 6.4999 0.300049 13.3999 0.300049C20.2999 0.300049 25.8999 5.90005 25.8999 12.8C25.8999 19.7 20.2999 25.3 13.3999 25.3Z" fill="#93B5C5"/>
<path d="M16.4998 5.1001H10.1998C9.39983 5.1001 8.7998 5.70012 8.7998 6.50012V18.8001C8.7998 19.6001 9.39983 20.2001 10.1998 20.2001H16.4998C17.2998 20.2001 17.8998 19.6001 17.8998 18.8001V6.50012C17.8998 5.70012 17.1998 5.1001 16.4998 5.1001ZM14.6998 6.1001L14.4998 6.00012H12.2998L12.0998 6.1001H14.6998ZM16.7998 18.7001C16.7998 18.9001 16.5998 19.0001 16.4998 19.0001H10.1998C9.99983 19.0001 9.89981 18.8001 9.89981 18.7001V6.40015C9.89981 6.20015 10.0998 6.1001 10.1998 6.1001H11.1998C11.1998 6.1001 11.8998 6.80011 12.0998 6.80011H14.5998C14.7998 6.80011 15.4998 6.1001 15.4998 6.1001H16.4998C16.6998 6.1001 16.7998 6.30015 16.7998 6.40015V18.7001Z" fill="white"/>
<path d="M13.3997 18.2001C13.7863 18.2001 14.0997 17.8867 14.0997 17.5001C14.0997 17.1135 13.7863 16.8 13.3997 16.8C13.0131 16.8 12.6997 17.1135 12.6997 17.5001C12.6997 17.8867 13.0131 18.2001 13.3997 18.2001Z" fill="white"/>
</svg>
