<svg width="93" height="93" viewBox="0 0 93 93" fill="none" xmlns="http://www.w3.org/2000/svg">
<path d="M46.8 63.8C56.465 63.8 64.3 55.965 64.3 46.3C64.3 36.635 56.465 28.8 46.8 28.8C37.135 28.8 29.3 36.635 29.3 46.3C29.3 55.965 37.135 63.8 46.8 63.8Z" fill="#D2E7EF"/>
<path d="M39 46.3H54.6" stroke="white" stroke-width="3" stroke-linecap="round"/>
<path d="M46.8 38.5V54.1" stroke="white" stroke-width="3" stroke-linecap="round"/>
<path d="M86.8 1.29999H6.79999C4.03856 1.29999 1.79999 3.53857 1.79999 6.29999V86.3C1.79999 89.0614 4.03857 91.3 6.79999 91.3H86.8C89.5614 91.3 91.8 89.0614 91.8 86.3V6.29999C91.8 3.53856 89.5614 1.29999 86.8 1.29999Z" stroke="#D2E7EF" stroke-width="2" stroke-miterlimit="10"/>
</svg>
