<svg width="61" height="61" viewBox="0 0 61 61" fill="none" xmlns="http://www.w3.org/2000/svg">
<path d="M30.5996 60.1C47.1682 60.1 60.5996 46.6685 60.5996 30.1C60.5996 13.5314 47.1682 0.0999756 30.5996 0.0999756C14.0311 0.0999756 0.599609 13.5314 0.599609 30.1C0.599609 46.6685 14.0311 60.1 30.5996 60.1Z" fill="#F4F7FB"/>
<path d="M46.1998 20.6C46.1998 26.5 46.1998 32.5 46.1998 38.4C46.1998 38.5 46.1998 38.5 46.0998 38.6C45.8998 39.5 45.3998 40.1 44.4998 40.4C44.0998 40.5 43.6998 40.6 43.3998 40.6C43.0998 40.6 42.6998 40.6 42.3998 40.6C42.3998 40.9 42.3998 41.2 42.3998 41.5C42.3998 43.3 41.2998 44.4 39.5998 44.4C35.4998 44.4 31.4998 44.4 27.3998 44.4C24.5998 44.4 21.7998 44.4 18.9998 44.4C17.7998 44.4 16.7998 43.7 16.3998 42.6C16.2998 42.4 16.2998 42.3 16.2998 42.1C16.2998 36.2 16.2998 30.2 16.2998 24.3C16.2998 24.2 16.2998 24.1 16.3998 24C16.5998 23.4 16.8998 22.8 17.4998 22.4C17.9998 22.1 18.4998 21.9 18.9998 21.9C19.3998 21.9 19.7998 21.9 20.0998 21.9C20.0998 21.6 20.0998 21.3 20.0998 21C20.0998 19.3 21.1998 18.2 22.8998 18.2C26.7998 18.2 30.5998 18.2 34.4998 18.2C37.4998 18.2 40.5998 18.2 43.5998 18.2C44.7998 18.2 45.5998 18.8 46.0998 19.8C46.0998 20.2 46.0998 20.4 46.1998 20.6ZM38.6998 27.4C38.5998 27.5 38.4998 27.5 38.4998 27.6C36.2998 29.5 34.0998 31.5 31.8998 33.4C31.3998 33.8 30.9998 33.8 30.4998 33.4C29.9998 32.9 29.3998 32.4 28.8998 32C28.3998 31.6 27.8998 31.2 27.4998 30.7C27.3998 30.7 27.3998 30.7 27.3998 30.8C25.5998 32.2 23.7998 33.6 21.9998 35.1C21.8998 35.2 21.8998 35.3 21.8998 35.4C21.8998 36.3 21.8998 37.2 21.8998 38C21.8998 38.6 22.2998 39 22.8998 39C29.7998 39 36.6998 39 43.5998 39C44.1998 39 44.5998 38.6 44.5998 38C44.5998 35.9 44.5998 33.8 44.5998 31.7C44.5998 31.5 44.4998 31.4 44.3998 31.3C43.6998 30.8 42.8998 30.3 42.1998 29.7C40.8998 28.9 39.7998 28.2 38.6998 27.4ZM31.1998 31.7C31.2998 31.6 31.2998 31.6 31.3998 31.6C33.5998 29.7 35.7998 27.8 37.9998 25.8C38.4998 25.3 38.7998 25.3 39.3998 25.7C40.9998 26.8 42.5998 28 44.1998 29.1C44.2998 29.2 44.3998 29.2 44.4998 29.3C44.4998 29.2 44.4998 29.2 44.4998 29.2C44.4998 26.5 44.4998 23.8 44.4998 21.1C44.4998 20.5 44.0998 20.2 43.4998 20.2C36.5998 20.2 29.6998 20.2 22.6998 20.2C22.0998 20.2 21.7998 20.6 21.7998 21.2C21.7998 25.1 21.7998 28.9 21.7998 32.8C21.7998 32.9 21.7998 32.9 21.7998 33C23.4998 31.7 25.0998 30.4 26.6998 29.1C27.2998 28.6 27.5998 28.7 28.1998 29.1C29.1998 29.9 30.1998 30.8 31.1998 31.7ZM19.9998 23.9C19.6998 23.9 19.2998 23.9 18.9998 23.9C18.1998 23.9 17.8998 24.2 17.8998 25C17.8998 30.6 17.8998 36.1 17.8998 41.7C17.8998 42.5 18.1998 42.8 18.9998 42.8C25.7998 42.8 32.6998 42.8 39.4998 42.8C39.5998 42.8 39.6998 42.8 39.6998 42.8C40.0998 42.8 40.4998 42.5 40.4998 42.1C40.4998 41.7 40.4998 41.3 40.4998 40.8C40.3998 40.8 40.1998 40.8 40.0998 40.8C34.2998 40.8 28.4998 40.8 22.6998 40.8C20.9998 40.8 19.8998 39.7 19.8998 38C19.8998 33.4 19.8998 28.9 19.8998 24.3C19.9998 24.1 19.9998 24 19.9998 23.9Z" fill="#51828E"/>
<path d="M38.7002 27.4C39.8002 28.2 40.9002 28.9 42.0002 29.7C42.7002 30.2 43.5002 30.7 44.2002 31.3C44.3002 31.4 44.4002 31.5 44.4002 31.7C44.4002 33.8 44.4002 35.9 44.4002 38C44.4002 38.6 44.1002 39 43.4002 39C36.5002 39 29.6002 39 22.7002 39C22.1002 39 21.7002 38.6 21.7002 38C21.7002 37.1 21.7002 36.2 21.7002 35.4C21.7002 35.3 21.8002 35.1 21.8002 35.1C23.6002 33.7 25.4002 32.3 27.2002 30.8C27.2002 30.8 27.2002 30.8 27.3002 30.7C27.8002 31.1 28.3002 31.5 28.7002 32C29.2002 32.5 29.8002 33 30.3002 33.4C30.8002 33.8 31.2002 33.8 31.7002 33.4C33.9002 31.5 36.1002 29.5 38.3002 27.6C38.6002 27.5 38.6002 27.5 38.7002 27.4Z" fill="white"/>
<path d="M31.1998 31.7C30.1998 30.8 29.1998 29.9 28.1998 29.1C27.5998 28.6 27.2998 28.6 26.6998 29.1C25.0998 30.4 23.3998 31.7 21.7998 33C21.7998 32.9 21.7998 32.8 21.7998 32.8C21.7998 28.9 21.7998 25.1 21.7998 21.2C21.7998 20.6 22.1998 20.2 22.6998 20.2C29.5998 20.2 36.4998 20.2 43.4998 20.2C44.0998 20.2 44.4998 20.6 44.4998 21.1C44.4998 23.8 44.4998 26.5 44.4998 29.2V29.3C44.3998 29.2 44.2998 29.2 44.1998 29.1C42.5998 28 40.9998 26.8 39.3998 25.7C38.7998 25.3 38.4998 25.3 37.9998 25.8C35.7998 27.7 33.5998 29.6 31.3998 31.6C31.2998 31.6 31.1998 31.6 31.1998 31.7ZM31.1998 22.1C29.6998 22.1 28.3998 23.3 28.3998 24.8C28.3998 26.3 29.5998 27.5 31.0998 27.6C32.5998 27.6 33.8998 26.4 33.8998 24.9C33.8998 23.4 32.6998 22.1 31.1998 22.1Z" fill="white"/>
<path d="M20 23.9C20 24.1 20 24.2 20 24.3C20 28.9 20 33.4 20 38C20 39.7 21.1 40.8 22.8 40.8C28.6 40.8 34.4 40.8 40.2 40.8C40.3 40.8 40.4 40.8 40.6 40.8C40.6 41.2 40.6 41.7 40.6 42.1C40.6 42.5 40.2 42.8 39.8 42.8C39.7 42.8 39.6 42.8 39.6 42.8C32.8 42.8 25.9 42.8 19.1 42.8C18.3 42.8 18 42.5 18 41.7C18 36.1 18 30.6 18 25C18 24.2 18.3 23.9 19.1 23.9C19.3 23.9 19.6 23.9 20 23.9Z" fill="white"/>
<path d="M31.1994 22.1C32.6994 22.1 33.8994 23.4 33.8994 24.9C33.8994 26.4 32.5994 27.6 31.0994 27.6C29.5994 27.6 28.3994 26.3 28.3994 24.8C28.3994 23.3 29.6994 22.1 31.1994 22.1ZM32.1994 24.9C32.1994 24.4 31.7994 23.9 31.1994 23.9C30.5994 23.9 30.1994 24.3 30.1994 24.9C30.1994 25.4 30.5994 25.9 31.1994 25.9C31.6994 25.9 32.1994 25.4 32.1994 24.9Z" fill="#51828E"/>
<path d="M32.2002 24.9C32.2002 25.5 31.7002 25.9 31.2002 25.9C30.7002 25.9 30.2002 25.4 30.2002 24.9C30.2002 24.3 30.7002 23.9 31.2002 23.9C31.7002 23.9 32.2002 24.3 32.2002 24.9Z" fill="white"/>
</svg>
