<svg width="35" height="35" viewBox="0 0 35 35" fill="none" xmlns="http://www.w3.org/2000/svg">
<path d="M17.5996 34.9C26.9884 34.9 34.5996 27.2889 34.5996 17.9C34.5996 8.51118 26.9884 0.900024 17.5996 0.900024C8.21077 0.900024 0.599609 8.51118 0.599609 17.9C0.599609 27.2889 8.21077 34.9 17.5996 34.9Z" fill="white"/>
<path d="M13.7004 8.00004C15.1004 5.60004 18.2003 4.90004 20.6003 6.30004C21.3003 6.70004 21.9004 7.30004 22.3004 8.00004L28.5004 18.3C29.9004 20.7 29.2004 23.7 26.8004 25.2C26.0004 25.7 25.1004 25.9 24.2004 25.9H11.9004C9.10039 25.9 6.90039 23.7 6.90039 20.9C6.90039 20 7.10034 19.1 7.60034 18.3L13.7004 8.00004Z" stroke="#337390" stroke-miterlimit="10"/>
<path d="M16.0586 11.0914H19.0346L18.5386 18.4034H16.5546L16.0586 11.0914ZM17.5466 22.4194C17.1092 22.4194 16.7412 22.2807 16.4426 22.0034C16.1546 21.7154 16.0106 21.3687 16.0106 20.9634C16.0106 20.558 16.1546 20.222 16.4426 19.9554C16.7306 19.678 17.0986 19.5394 17.5466 19.5394C17.9946 19.5394 18.3626 19.678 18.6506 19.9554C18.9386 20.222 19.0826 20.558 19.0826 20.9634C19.0826 21.3687 18.9332 21.7154 18.6346 22.0034C18.3466 22.2807 17.9839 22.4194 17.5466 22.4194Z" fill="#337390"/>
</svg>
