<svg width="15" height="11" viewBox="0 0 15 11" fill="none" xmlns="http://www.w3.org/2000/svg">
<path d="M7.50003 0.479908C9.50707 0.479908 11.4085 0.479908 13.4155 0.479908C14.4718 0.479908 15 1.21934 15 2.06441C15 4.49399 15 7.0292 15 9.45877C15 10.1982 14.5775 10.7264 13.8381 10.9376C13.7324 10.9376 13.5211 10.9376 13.4155 10.9376C9.50705 10.9376 5.49295 10.9376 1.58451 10.9376C0.633802 10.9376 0 10.3038 0 9.35313C0 6.92356 0 4.38835 0 1.95877C0 1.00807 0.633802 0.374268 1.58451 0.374268C3.59155 0.479901 5.49299 0.479908 7.50003 0.479908ZM13.7324 2.27568C13.6267 2.38131 13.5211 2.48694 13.4155 2.48694C11.6197 3.96581 9.7183 5.44469 7.92253 6.81793C7.60563 7.13483 7.28876 7.13483 6.97186 6.81793C5.49299 5.65596 4.01413 4.38836 2.42963 3.22639C2.00709 2.90949 1.58451 2.59259 1.05634 2.17005C1.05634 2.27569 1.05634 2.38131 1.05634 2.48694C1.05634 4.70525 1.05634 7.0292 1.05634 9.24751C1.05634 9.67004 1.05636 9.67004 1.4789 9.67004C5.38735 9.67004 9.19016 9.67004 13.0986 9.67004C13.5211 9.67004 13.5212 9.67004 13.5212 9.24751C13.5212 7.0292 13.5212 4.70525 13.5212 2.48694C13.7324 2.48694 13.7324 2.48695 13.7324 2.27568ZM2.32395 1.64189C2.42959 1.74752 2.42963 1.74751 2.42963 1.74751C4.01413 3.01511 5.70425 4.28272 7.28875 5.55033C7.39439 5.65596 7.50001 5.65596 7.60564 5.55033C9.19015 4.28272 10.7747 3.01511 12.3592 1.74751L12.4648 1.64189C9.19018 1.64189 5.80987 1.64189 2.32395 1.64189Z" fill="#BFBDC7"/>
</svg>
