<svg width="16" height="16" viewBox="0 0 16 16" fill="none" xmlns="http://www.w3.org/2000/svg">
<path d="M7.90039 15.5C12.0425 15.5 15.4004 12.1421 15.4004 8C15.4004 3.85786 12.0425 0.5 7.90039 0.5C3.75826 0.5 0.400391 3.85786 0.400391 8C0.400391 12.1421 3.75826 15.5 7.90039 15.5Z" fill="#F2F2F2"/>
<path d="M7.90039 15.5C3.80039 15.5 0.400391 12.1 0.400391 8C0.400391 3.9 3.80039 0.5 7.90039 0.5C12.0004 0.5 15.4004 3.9 15.4004 8C15.4004 12.1 12.0004 15.5 7.90039 15.5ZM7.90039 1.5C4.30039 1.5 1.40039 4.4 1.40039 8C1.40039 11.6 4.30039 14.5 7.90039 14.5C11.5004 14.5 14.4004 11.6 14.4004 8C14.4004 4.4 11.4004 1.5 7.90039 1.5Z" fill="#337390"/>
<path d="M12.2996 4.69999C12.0996 4.49999 11.7996 4.39998 11.5996 4.59998L7.89967 7.39997L5.19966 5.59998C4.99966 5.39998 4.69965 5.49999 4.49965 5.69999C4.29965 5.89999 4.39963 6.19997 4.59963 6.39997L7.59963 8.39997C7.69963 8.39997 7.79964 8.49998 7.79964 8.49998C7.89964 8.49998 7.99963 8.49997 8.09963 8.39997L12.0996 5.39997C12.3996 5.19997 12.3996 4.89999 12.2996 4.69999Z" fill="#337390"/>
</svg>
