<svg width="16" height="16" viewBox="0 0 16 16" fill="none" xmlns="http://www.w3.org/2000/svg">
<path d="M8.40039 15.5C12.5425 15.5 15.9004 12.1421 15.9004 8C15.9004 3.85786 12.5425 0.5 8.40039 0.5C4.25826 0.5 0.900391 3.85786 0.900391 8C0.900391 12.1421 4.25826 15.5 8.40039 15.5Z" fill="#66ACCC"/>
<path d="M8.40039 15.5C4.30039 15.5 0.900391 12.1 0.900391 8C0.900391 3.9 4.30039 0.5 8.40039 0.5C12.5004 0.5 15.9004 3.9 15.9004 8C15.9004 12.1 12.6004 15.5 8.40039 15.5ZM8.40039 1.5C4.80039 1.5 1.90039 4.4 1.90039 8C1.90039 11.6 4.80039 14.5 8.40039 14.5C12.0004 14.5 14.9004 11.6 14.9004 8C14.9004 4.4 12.0004 1.5 8.40039 1.5Z" fill="#3D3D3D"/>
<path d="M12.7996 4.69999C12.5996 4.49999 12.2996 4.39998 12.0996 4.59998L8.39967 7.39997L5.69966 5.59998C5.49966 5.39998 5.19965 5.49999 4.99965 5.69999C4.79965 5.89999 4.89963 6.19997 5.09963 6.39997L8.09963 8.39997C8.19963 8.39997 8.29967 8.49998 8.39967 8.49998C8.49967 8.49998 8.59966 8.49997 8.69966 8.39997L12.6997 5.39997C12.9997 5.19997 12.9996 4.89999 12.7996 4.69999Z" fill="white"/>
</svg>
