<svg width="28" height="21" viewBox="0 0 28 21" fill="none" xmlns="http://www.w3.org/2000/svg">
<path d="M4 1.80005H11.7C12.6 1.80005 13.2 2.50005 13.2 3.30005V14.1C13.2 15 12.5 15.6 11.7 15.6H4C3.1 15.6 2.5 14.9 2.5 14.1V3.30005C2.5 2.50005 3.2 1.80005 4 1.80005Z" fill="white"/>
<path d="M11.8 17.2H4.09998C2.39998 17.2 1 15.8 1 14.1V3.30005C1 1.60005 2.39998 0.199951 4.09998 0.199951H11.8C13.5 0.199951 14.9 1.60005 14.9 3.30005V14.1C14.9 15.8 13.5 17.2 11.8 17.2ZM4 1.80005C3.1 1.80005 2.5 2.50005 2.5 3.30005V14.1C2.5 15 3.2 15.6 4 15.6H11.7C12.6 15.6 13.2 14.9 13.2 14.1V3.30005C13.2 2.40005 12.5 1.80005 11.7 1.80005H4Z" fill="#51828E"/>
<path d="M4 4.90002H24.1C25 4.90002 25.6 5.60002 25.6 6.40002V17.2C25.6 18.1 24.9 18.7 24.1 18.7H4C3.1 18.7 2.5 18 2.5 17.2V6.40002C2.5 5.50002 3.2 4.90002 4 4.90002Z" fill="white"/>
<path d="M24.1003 20.3H4.00037C2.30037 20.3 0.900391 18.9 0.900391 17.2V6.40002C0.900391 4.70002 2.30037 3.30005 4.00037 3.30005H24.1003C25.8003 3.30005 27.2004 4.70002 27.2004 6.40002V17.2C27.2004 18.9 25.8003 20.3 24.1003 20.3ZM4.00037 4.90002C3.10037 4.90002 2.50037 5.60002 2.50037 6.40002V17.2C2.50037 18.1 3.20037 18.7 4.00037 18.7H24.1003C25.0003 18.7 25.6003 18 25.6003 17.2V6.40002C25.6003 5.50002 24.9003 4.90002 24.1003 4.90002H4.00037Z" fill="#51828E"/>
<path d="M9.50018 7.90002H11.0002C11.4002 7.90002 11.8002 8.19995 11.8002 8.69995V14.9C11.8002 15.3 11.5002 15.7 11.0002 15.7H9.50018C9.10018 15.7 8.7002 15.4 8.7002 14.9V8.69995C8.7002 8.29995 9.00018 7.90002 9.50018 7.90002Z" fill="#51828E"/>
<path d="M11.8002 7.90002H8.7002V15.6H11.8002V7.90002Z" fill="#51828E"/>
<path d="M20.3 7.90002H21.8C22.2 7.90002 22.6 8.20004 22.6 8.70004V14.9C22.6 15.3 22.3 15.7 21.8 15.7H20.3C19.9 15.7 19.5 15.4 19.5 14.9V8.70004C19.5 8.30004 19.8 7.90002 20.3 7.90002Z" fill="#51828E"/>
<path d="M22.6 7.90002H19.5V15.6H22.6V7.90002Z" fill="#51828E"/>
<path d="M6.40057 15.7C6.00057 15.7 5.60059 15.4 5.60059 14.9V8.70004C5.60059 8.30004 5.90057 7.90002 6.40057 7.90002C6.90057 7.90002 7.20058 8.20004 7.20058 8.70004V14.9C7.10058 15.3 6.80057 15.7 6.40057 15.7Z" fill="#51828E"/>
<path d="M14.1008 15.7C13.7008 15.7 13.3008 15.4 13.3008 14.9V8.70004C13.3008 8.30004 13.6008 7.90002 14.1008 7.90002C14.6008 7.90002 14.9008 8.20004 14.9008 8.70004V14.9C14.9008 15.3 14.5008 15.7 14.1008 15.7Z" fill="#51828E"/>
<path d="M17.2004 15.7C16.8004 15.7 16.4004 15.4 16.4004 14.9V8.70004C16.4004 8.30004 16.7004 7.90002 17.2004 7.90002C17.7004 7.90002 18.0004 8.20004 18.0004 8.70004V14.9C17.9004 15.3 17.6004 15.7 17.2004 15.7Z" fill="#51828E"/>
</svg>
