<svg width="21" height="21" viewBox="0 0 21 21" fill="none" xmlns="http://www.w3.org/2000/svg">
<path d="M0.900024 10.4C0.900024 5.90002 0.900049 3.59995 2.30005 2.19995C3.70005 0.799951 6 0.800049 10.5 0.800049H11.3C15.8 0.800049 18.1 0.799951 19.5 2.19995C20.9 3.59995 20.9 5.90002 20.9 10.4V11.2C20.9 15.7 20.9 18 19.5 19.4C18.1 20.8 15.8 20.8 11.3 20.8H10.5C6 20.8 3.70005 20.8 2.30005 19.4C0.900049 18 0.900024 15.7 0.900024 11.2V10.4Z" fill="#D2E7EF"/>
<path d="M11.6 15.2C6.99998 15.2 4.40005 12.1 4.30005 6.90002H6.59998C6.69998 10.7 8.39995 12.3 9.69995 12.7V6.90002H11.9V10.2C13.2 10.1 14.6 8.60002 15.1 6.90002H17.2C16.8 8.60002 15.8 10.1 14.3 11.1C16 11.9 17.2 13.5 17.7 15.3H15.3C14.9 13.7 13.5 12.5 11.9 12.3V15.3H11.6V15.2Z" fill="white"/>
</svg>
