<svg width="25" height="25" viewBox="0 0 25 25" fill="none" xmlns="http://www.w3.org/2000/svg">
<path d="M12.5 25C5.6 25 0 19.4 0 12.5C0 5.6 5.6 0 12.5 0C19.4 0 25 5.6 25 12.5C25 19.4 19.4 25 12.5 25Z" fill="#93B5C5"/>
<path d="M12.4971 18.4971C15.7971 18.4971 18.4971 15.7971 18.4971 12.4971C18.4971 9.19707 15.7971 6.49707 12.4971 6.49707C9.19707 6.49707 6.49707 9.19707 6.49707 12.4971C6.49707 15.7971 9.19707 18.4971 12.4971 18.4971ZM7.89707 14.8971H10.2971C10.5971 15.8971 10.9971 16.7971 11.5971 17.6971C9.99707 17.3971 8.59707 16.3971 7.89707 14.8971ZM10.8971 10.8971H13.8971C14.0971 11.9971 14.0971 13.0971 13.8971 14.0971H10.7971C10.6971 12.9971 10.6971 11.8971 10.8971 10.8971ZM12.3971 17.3971C11.7971 16.5971 11.3971 15.7971 11.0971 14.7971H13.7971C13.4971 15.7971 12.9971 16.6971 12.3971 17.3971ZM13.1971 17.6971C13.7971 16.7971 14.2971 15.8971 14.5971 14.8971H17.1971C16.3971 16.3971 14.8971 17.3971 13.1971 17.6971ZM17.6971 12.4971C17.6971 12.9971 17.5971 13.4971 17.4971 14.0971H14.7971C14.9971 12.9971 14.9971 11.8971 14.7971 10.8971H17.4971C17.5971 11.3971 17.6971 11.8971 17.6971 12.4971ZM17.0971 10.0971H14.4971C14.1971 9.09707 13.7971 8.19707 13.1971 7.29707C14.8971 7.59707 16.2971 8.59707 17.0971 10.0971ZM13.7971 10.0971H11.0971C11.3971 9.19707 11.7971 8.29707 12.3971 7.59707C12.9971 8.29707 13.4971 9.19707 13.7971 10.0971ZM11.5971 7.39707C10.9971 8.19707 10.5971 9.09707 10.2971 10.0971H7.89707C8.59707 8.59707 9.99707 7.59707 11.5971 7.39707ZM10.0971 10.8971C9.89707 11.9971 9.89707 13.0971 10.0971 14.0971H7.49707C7.39707 13.5971 7.29707 13.0971 7.29707 12.4971C7.29707 11.8971 7.39707 11.3971 7.59707 10.8971H10.0971Z" fill="white"/>
</svg>
